<svg width="16" height="20" viewBox="0 0 16 20" fill="none" xmlns="http://www.w3.org/2000/svg">
<g clip-path="url(#clip0)">
<path d="M15.3429 8.0427C15.2037 8.61464 15.1059 9.19998 14.9177 9.75504C14.4425 11.1604 13.6871 12.4272 12.8804 13.6614C11.4616 15.8321 9.84246 17.849 8.11207 19.778C7.85754 20.0617 7.4283 20.0803 7.17319 19.7914C4.7963 17.0971 2.55046 14.3055 0.931894 11.0702C0.422853 10.0527 0.00175702 8.99555 9.73889e-06 7.82778C-0.00348483 5.54699 0.933642 3.67507 2.54522 2.12232C5.257 -0.489873 9.39457 -0.718185 12.3655 1.58998C14.1617 2.98548 15.1251 4.84866 15.2928 7.12072C15.2998 7.21507 15.3254 7.30826 15.3429 7.40145C15.3429 7.6152 15.3429 7.82895 15.3429 8.0427ZM7.7463 18.6324C7.83017 18.541 7.87677 18.4944 7.9187 18.4431C8.59665 17.6207 9.29148 16.8112 9.94846 15.9725C11.2886 14.2613 12.5385 12.4878 13.4751 10.5163C13.8874 9.64787 14.2404 8.75326 14.2345 7.76605C14.2235 5.97158 13.6346 4.39204 12.3836 3.10254C10.7761 1.44612 8.80399 0.734973 6.52029 1.14384C4.49169 1.50669 2.95117 2.64184 1.92959 4.43805C1.28252 5.57553 0.948202 6.80387 1.12759 8.12074C1.26854 9.15222 1.72283 10.0806 2.20858 10.988C3.30238 13.03 4.67632 14.8816 6.12133 16.683C6.64202 17.3324 7.18659 17.9626 7.7463 18.6324Z" fill="#62637C"/>
<path d="M7.77326 5.72266C8.85075 4.68477 10.043 4.79543 10.8578 5.29865C11.8468 5.90962 12.2125 6.84733 12.1613 7.97724C12.1019 9.28829 11.421 10.279 10.5089 11.1369C9.77798 11.8248 8.94685 12.3816 8.0371 12.8038C7.83907 12.8958 7.52981 12.9349 7.34692 12.8446C5.93978 12.1544 4.66251 11.2848 3.78654 9.9441C3.17324 9.00523 2.91697 7.98132 3.34855 6.90266C3.83255 5.69296 4.91237 4.8199 6.20653 4.94395C6.76741 4.99754 7.24267 5.23983 7.64862 5.62598C7.6824 5.65859 7.72259 5.68422 7.77326 5.72266ZM11.089 7.89454C11.075 7.79669 11.0651 7.6406 11.029 7.49091C10.8607 6.79142 10.4402 6.30509 9.73896 6.13269C9.05693 5.96553 8.59798 6.35809 8.21299 6.86131C8.19552 6.8846 8.18096 6.90965 8.16349 6.93295C7.91421 7.26551 7.42905 7.27075 7.16404 6.94518C7.05396 6.81005 6.95087 6.66678 6.82681 6.54563C6.46629 6.19443 6.0452 5.98534 5.53499 6.1391C4.92985 6.3214 4.50759 6.71687 4.32936 7.33424C4.11561 8.07392 4.3911 8.71226 4.80171 9.29935C5.53208 10.3425 6.55715 11.0385 7.65095 11.6436C7.71851 11.6809 7.8449 11.6739 7.91479 11.6355C8.77504 11.159 9.5916 10.6191 10.2596 9.8876C10.7576 9.34187 11.0651 8.70586 11.089 7.89454Z" fill="#62637C"/>
<path d="M11.089 7.89453C11.0651 8.70585 10.7576 9.34244 10.2596 9.8876C9.59159 10.6191 8.77503 11.159 7.91478 11.6355C7.84489 11.6745 7.7185 11.6809 7.65094 11.6436C6.55714 11.0385 5.53207 10.3431 4.8017 9.29934C4.39109 8.71284 4.1156 8.07392 4.32935 7.33423C4.50758 6.71686 4.92984 6.32139 5.53498 6.13909C6.04519 5.98533 6.46686 6.19442 6.8268 6.54563C6.95086 6.66677 7.05395 6.81005 7.16403 6.94517C7.42904 7.27075 7.9142 7.26551 8.16348 6.93294C8.18095 6.90964 8.19551 6.88402 8.21298 6.8613C8.59797 6.35808 9.05692 5.96553 9.73895 6.13269C10.4402 6.3045 10.8607 6.79141 11.029 7.49091C11.0651 7.64059 11.075 7.79668 11.089 7.89453Z" fill="#FF6612"/>
</g>
<defs>
<clipPath id="clip0">
<rect width="15.3429" height="19.9996" fill="white"/>
</clipPath>
</defs>
</svg>
