<svg width="23" height="17" viewBox="0 0 23 17" fill="none" xmlns="http://www.w3.org/2000/svg">
<g clip-path="url(#clip0)">
<path d="M0.590925 8.44868C0.861351 8.86347 1.18607 9.02276 1.65772 8.73518C1.77909 8.66035 1.96541 8.67745 2.12191 8.67745C4.12668 8.67425 6.13145 8.65394 8.13515 8.6967C8.46839 8.70418 8.8868 8.91371 9.10932 9.16922C9.7364 9.88869 10.2879 10.6755 10.8532 11.4474C10.9512 11.581 10.9395 11.7991 11.0427 11.9242C11.1886 12.1005 11.3898 12.3347 11.5783 12.3454C11.7689 12.356 12.0702 12.1711 12.1543 11.9926C12.5705 11.1095 12.9006 10.1859 13.3169 9.30392C13.8897 8.09055 14.5136 6.90177 15.1502 5.63281C15.821 6.52546 16.4811 7.37429 17.105 8.24877C17.3243 8.55665 17.5553 8.69135 17.9354 8.68494C19.0703 8.66356 20.2063 8.66676 21.3413 8.68494C21.6309 8.68921 21.9194 8.83033 22.2068 8.82819C22.4443 8.82712 22.7381 8.76832 22.8967 8.61866C23.0107 8.51068 23.0362 8.13331 22.9372 8.01358C22.7988 7.84574 22.506 7.7228 22.2803 7.72386C20.8675 7.73028 19.4536 7.78159 18.0408 7.79977C17.9333 7.80084 17.7981 7.67789 17.7203 7.5774C17.0954 6.75851 16.4768 5.93855 15.8667 5.11004C15.7656 4.9732 15.755 4.7626 15.6432 4.64073C15.4792 4.4622 15.2578 4.20777 15.0693 4.21525C14.8681 4.2238 14.5955 4.45792 14.4965 4.66318C14.1462 5.39013 13.8865 6.16092 13.5362 6.88894C12.907 8.19745 12.2373 9.48566 11.5133 10.9235C10.8447 9.95283 10.2059 9.07942 9.63313 8.16538C9.41381 7.81473 9.21046 7.70141 8.79418 7.70676C6.34012 7.73562 3.885 7.71104 1.42988 7.73242C1.14881 7.73456 0.868803 7.9195 0.588795 8.01999C0.590925 8.16324 0.590925 8.30543 0.590925 8.44868Z" fill="#FF6612"/>
<path d="M11.7689 17C13.9525 14.8234 16.1372 12.6468 18.3198 10.4681C18.537 10.2511 18.6903 9.99238 18.4039 9.73901C18.1036 9.47282 17.8492 9.6706 17.6235 9.89723C15.7667 11.7595 13.9088 13.6197 12.0574 15.4862C11.9211 15.6231 11.8328 15.808 11.6571 16.0646C11.0939 15.4648 10.6574 14.9784 10.1974 14.5145C8.69731 12.9996 7.18761 11.4933 5.68217 9.98383C5.60658 9.90792 5.54057 9.78285 5.45434 9.76681C5.22224 9.72405 4.98269 9.72832 4.74527 9.71443C4.76869 9.93786 4.71013 10.2351 4.83044 10.3719C5.34787 10.9556 5.9164 11.4944 6.47003 12.0449C8.12878 13.6966 9.78859 15.3472 11.4473 16.9989C11.5559 17 11.6624 17 11.7689 17Z" fill="#62637C"/>
<path d="M11.6848 2.57642C11.1492 2.02372 10.6829 1.37695 10.0686 0.936499C7.05772 -1.22084 2.81823 0.546296 2.20604 4.21099C2.08574 4.92832 2.17197 5.68521 2.20604 6.42178C2.21882 6.71149 2.37213 7.00976 2.7437 6.93493C3.09078 6.86544 3.12059 6.60993 3.05991 6.27746C2.71176 4.36066 3.24196 2.73998 4.84854 1.60358C7.27811 -0.115444 10.9949 1.38871 11.1492 4.53705C11.1641 4.84921 11.1908 5.24369 11.6347 5.22338C12.0489 5.20414 12.0787 4.85777 12.0872 4.51567C12.1287 2.77954 13.5788 1.2647 15.3195 0.952534C18.2825 0.420149 20.7153 3.12591 20.1914 5.93216C20.1627 6.08824 20.118 6.26249 20.1584 6.40682C20.2117 6.59818 20.3011 6.8633 20.448 6.92637C20.7515 7.05787 20.9708 6.8323 21.007 6.53938C21.0762 5.97706 21.1465 5.40619 21.123 4.84173C21.0347 2.75174 19.5388 0.843492 17.5468 0.224513C15.344 -0.459678 12.956 0.458635 11.7731 2.44386C11.7295 2.51762 11.6773 2.58711 11.6848 2.57642Z" fill="#62637C"/>
</g>
<defs>
<clipPath id="clip0">
<rect width="22.4091" height="17" transform="matrix(-1 0 0 1 23 0)" fill="white"/>
</clipPath>
</defs>
</svg>
