<svg width="17" height="20" viewBox="0 0 17 20" fill="none" xmlns="http://www.w3.org/2000/svg">
<g clip-path="url(#clip0)">
<path d="M0.000218097 20C-0.011149 18.5673 0.421854 17.2784 1.29144 16.1463C2.31427 14.8147 3.66779 14.0163 5.32381 13.7344C5.45138 13.7127 5.58147 13.7058 5.70924 13.6843C5.73492 13.6801 5.77408 13.6414 5.77429 13.6182C5.7785 13.2606 5.77913 12.9027 5.77408 12.5448C5.77366 12.508 5.73766 12.4634 5.7063 12.4367C5.08805 11.9096 4.64516 11.2644 4.40266 10.4878C4.33719 10.2782 4.30267 10.0588 4.25025 9.84474C4.24099 9.80727 4.22226 9.7597 4.19258 9.7418C3.68442 9.43595 3.40951 8.96316 3.24005 8.41606C3.15185 8.13104 3.11796 7.83992 3.18638 7.5448C3.22364 7.38376 3.30257 7.24336 3.43161 7.13747C3.48508 7.09369 3.49897 7.05475 3.47918 6.9857C3.3251 6.44555 3.20322 5.89762 3.16827 5.33642C3.07502 3.8347 3.44172 2.48307 4.52243 1.38551C5.17288 0.724953 5.97363 0.331314 6.87479 0.133863C7.39515 0.0197713 7.92225 -0.0216976 8.45271 0.0105092C9.23936 0.0582932 9.94686 0.310685 10.531 0.85799C10.7316 1.04597 10.8981 1.26194 11.0333 1.50255C11.0528 1.53749 11.1031 1.57538 11.1408 1.57685C12.3337 1.6259 13.3029 2.43233 13.593 3.72945C13.7527 4.44368 13.7241 5.15749 13.5843 5.86899C13.5128 6.23295 13.4187 6.59248 13.3322 6.95328C13.3183 7.01159 13.3105 7.0558 13.3705 7.09853C13.594 7.25746 13.6972 7.4907 13.6942 7.75214C13.685 8.58173 13.3715 9.26123 12.6672 9.7357C12.6375 9.7557 12.6106 9.7978 12.6051 9.83337C12.4529 10.7954 12.0226 11.6104 11.3183 12.2819C11.3132 12.2868 11.309 12.2933 11.3031 12.2965C11.0823 12.419 11.0507 12.6141 11.0657 12.8465C11.0831 13.1187 11.0699 13.393 11.0699 13.6729C11.2539 13.6992 11.4336 13.7203 11.6115 13.7512C12.7794 13.9542 13.8117 14.4448 14.7015 15.2279C15.7805 16.1775 16.4594 17.3616 16.7408 18.7704C16.7901 19.0169 16.8069 19.27 16.8393 19.5198C16.8437 19.5541 16.8522 19.5878 16.8589 19.6217C16.8589 19.748 16.8589 19.8743 16.8589 20.0006C11.2396 20 5.61978 20 0.000218097 20ZM10.5693 4.12119C10.5525 4.14372 10.5428 4.15824 10.5314 4.17171C10.0298 4.76406 9.40166 5.17096 8.67816 5.43978C8.06855 5.66628 7.43536 5.74395 6.78975 5.74479C6.47989 5.74521 6.17466 5.77742 5.87407 5.85468C5.19941 6.02792 4.79735 6.49965 4.77714 7.19389C4.75714 7.88434 4.76283 8.57562 4.76767 9.26649C4.76914 9.47215 4.78514 9.68202 4.82934 9.88221C5.15899 11.3736 6.06668 12.3259 7.53009 12.7556C7.6105 12.7791 7.69217 12.8217 7.75595 12.876C8.13675 13.1999 8.64996 13.2235 9.04086 12.9122C9.16021 12.8172 9.28567 12.7602 9.42923 12.7204C10.9827 12.2897 12.082 10.8465 12.0845 9.23702C12.0858 8.41964 12.0862 7.60247 12.0832 6.78509C12.0828 6.65248 12.0712 6.5186 12.051 6.38746C11.9662 5.83426 11.7349 5.34463 11.393 4.9051C11.1612 4.60724 10.8929 4.34727 10.5693 4.12119ZM12.6476 7.21704C12.6548 7.21683 12.6619 7.21683 12.6689 7.21662C12.6775 7.19031 12.6868 7.16421 12.6945 7.13768C12.8726 6.54386 13.0265 5.94456 13.1008 5.32716C13.172 4.73628 13.1574 4.15108 12.9657 3.58231C12.7406 2.91523 12.3169 2.43612 11.6294 2.22015C11.3581 2.1349 11.0777 2.12753 10.7969 2.13489C10.7194 2.137 10.6817 2.11195 10.6483 2.03891C10.5712 1.87093 10.4984 1.69537 10.3891 1.54907C9.91107 0.909142 9.23726 0.633384 8.46535 0.573602C7.91741 0.531291 7.37347 0.581812 6.83943 0.718848C5.94669 0.947874 5.18699 1.39372 4.61358 2.12374C3.87072 3.06952 3.6419 4.16434 3.73052 5.33852C3.7802 5.99761 3.94503 6.63543 4.14711 7.26335C4.15763 7.29598 4.17258 7.32714 4.19552 7.38334C4.20878 7.22567 4.2151 7.09958 4.23068 6.97476C4.33109 6.17548 4.77019 5.65007 5.52547 5.38294C5.99111 5.21833 6.47463 5.18296 6.96383 5.17812C7.50335 5.17286 8.03045 5.0874 8.53607 4.89163C9.2922 4.59882 9.91949 4.14287 10.3561 3.44738C10.3942 3.38654 10.4283 3.36633 10.4984 3.40696C10.9758 3.68398 11.4016 4.0212 11.7532 4.44957C12.3388 5.16297 12.6596 5.97256 12.6476 6.90361C12.6463 7.00844 12.6476 7.11263 12.6476 7.21704ZM16.2689 19.4308C16.0123 16.697 13.8338 14.6892 11.5936 14.3299C11.5936 14.3695 11.5936 14.4072 11.5936 14.445C11.5936 14.9115 11.5957 15.378 11.5911 15.8443C11.5905 15.9053 11.5679 15.9758 11.5326 16.0257C10.7459 17.1315 9.95612 18.2347 9.16716 19.3388C9.14863 19.3647 9.13348 19.3931 9.11032 19.4308C11.5079 19.4308 13.8845 19.4308 16.2689 19.4308ZM5.25835 14.316C3.85262 14.6023 2.71338 15.2913 1.82611 16.3892C1.11062 17.2746 0.698032 18.2882 0.580362 19.4247C2.97356 19.4247 5.35034 19.4247 7.73764 19.4247C7.72038 19.3982 7.71154 19.3832 7.70164 19.3693C6.90974 18.261 6.11678 17.1536 5.32802 16.043C5.28698 15.9853 5.26256 15.9034 5.26129 15.8323C5.25456 15.4746 5.25814 15.117 5.25814 14.7591C5.25835 14.6196 5.25835 14.48 5.25835 14.316ZM10.5064 12.8884C10.4645 12.9082 10.4403 12.9208 10.415 12.9313C10.1563 13.0376 9.89697 13.1427 9.63868 13.2505C9.55301 13.2862 9.46018 13.3157 9.38713 13.37C8.79752 13.8093 8.01719 13.8011 7.43557 13.3456C7.39536 13.3142 7.3459 13.2928 7.29811 13.2734C7.00972 13.1572 6.72049 13.0429 6.43148 12.928C6.40411 12.917 6.37717 12.9056 6.33949 12.8903C6.33949 13.2391 6.33738 13.5719 6.34243 13.9047C6.34306 13.9419 6.37506 13.9889 6.40643 14.0139C6.86742 14.3802 7.33453 14.7391 7.79174 15.11C7.94583 15.2351 8.10939 15.3161 8.30242 15.3582C8.52029 15.4056 8.72679 15.3527 8.88698 15.2338C9.4185 14.8389 9.93233 14.4202 10.4514 14.0085C10.4777 13.9876 10.5038 13.9476 10.5043 13.9161C10.5078 13.5803 10.5064 13.2439 10.5064 12.8884ZM5.81281 14.2743C5.81281 14.7602 5.81049 15.2119 5.81555 15.6636C5.81618 15.7251 5.83933 15.7956 5.87491 15.8457C6.37506 16.5518 6.87921 17.255 7.38273 17.959C7.40589 17.9914 7.43115 18.0225 7.46588 18.0678C7.60271 17.6573 7.73427 17.2664 7.86121 16.8736C7.87215 16.8395 7.85952 16.7909 7.8431 16.7557C7.63197 16.3055 7.41894 15.856 7.2036 15.4079C7.18339 15.3656 7.1495 15.3256 7.11266 15.2961C6.84448 15.0816 6.5742 14.8701 6.30433 14.6579C6.14835 14.5358 5.99195 14.4143 5.81281 14.2743ZM9.38461 18.0661C9.40903 18.04 9.41955 18.0307 9.42755 18.0198C9.95086 17.2877 10.4746 16.5555 10.9954 15.8215C11.0211 15.7853 11.0316 15.731 11.032 15.6851C11.0347 15.254 11.0337 14.8229 11.0333 14.392C11.0333 14.3621 11.0297 14.3322 11.0269 14.2886C10.9939 14.3101 10.9701 14.3232 10.9493 14.3396C10.5529 14.6513 10.1555 14.9618 9.76204 15.2772C9.70731 15.3212 9.65952 15.3826 9.62858 15.446C9.4627 15.7859 9.31851 16.1373 9.13643 16.4682C9.00107 16.7141 8.97308 16.9353 9.08738 17.198C9.20652 17.4721 9.28357 17.7647 9.38461 18.0661ZM12.6371 9.01241C12.9351 8.80107 13.2157 8.01863 13.1143 7.70478C12.9558 8.13925 12.7998 8.56678 12.6371 9.01241ZM3.73095 7.81613C3.72274 8.27061 3.89598 8.65435 4.17279 8.99726C4.18226 8.99347 4.19194 8.98989 4.20142 8.9861C4.0448 8.59604 3.88798 8.20619 3.73095 7.81613Z" fill="#62637C"/>
<path d="M5.81281 14.2744C5.99195 14.4141 6.14835 14.5356 6.30412 14.6579C6.57419 14.8701 6.84448 15.0816 7.11245 15.2961C7.14929 15.3256 7.18318 15.3656 7.20338 15.4079C7.41873 15.8561 7.63176 16.3055 7.84289 16.7558C7.85931 16.7907 7.87215 16.8395 7.86099 16.8736C7.73427 17.2662 7.6025 17.6573 7.46567 18.0678C7.43094 18.0226 7.40589 17.9916 7.38252 17.959C6.879 17.2551 6.37485 16.5518 5.8747 15.8458C5.83912 15.7957 5.81597 15.7249 5.81534 15.6637C5.81049 15.2119 5.81281 14.7602 5.81281 14.2744Z" fill="#FF6612"/>
<path d="M9.38459 18.0661C9.28355 17.7645 9.20651 17.4721 9.08736 17.198C8.97306 16.9353 9.00106 16.7141 9.13641 16.4682C9.31849 16.1375 9.46269 15.786 9.62856 15.446C9.65951 15.3826 9.70729 15.3212 9.76202 15.2772C10.1557 14.9619 10.5529 14.6514 10.9493 14.3396C10.9701 14.3232 10.9939 14.3101 11.0269 14.2887C11.0297 14.3322 11.0332 14.3621 11.0332 14.392C11.0337 14.8231 11.0345 15.2542 11.032 15.6851C11.0318 15.731 11.021 15.7853 10.9954 15.8215C10.4746 16.5556 9.95084 17.2875 9.42753 18.0198C9.41953 18.031 9.40901 18.04 9.38459 18.0661Z" fill="#FF6612"/>
</g>
<defs>
<clipPath id="clip0">
<rect width="16.8591" height="20" fill="white"/>
</clipPath>
</defs>
</svg>
